<svg xmlns="http://www.w3.org/2000/svg" xmlns:xlink="http://www.w3.org/1999/xlink" viewBox="0 0 424 328"><defs><style>.a{isolation:isolate;}.b{fill:url(#a);}.c{fill:#97999c;}.c,.m{mix-blend-mode:multiply;}.d{fill:#e0e1e3;}.e{fill:#f2efdf;}.f{fill:#969bcf;opacity:0.7;}.g{fill:#d75548;}.h{fill:#a3514d;}.i{fill:#e2995f;}.j{fill:#edebeb;}.k{fill:#241b16;}.l{fill:#b9b846;}.m{fill:#dbdbdb;}.n{fill:#446380;}.o{fill:url(#b);}</style><linearGradient id="a" x1="81.98" y1="144.95" x2="213.66" y2="144.95" gradientUnits="userSpaceOnUse"><stop offset="0.03" stop-color="#b3dfeb"/><stop offset="0.61" stop-color="#b5dfea"/><stop offset="0.82" stop-color="#bcdfe6"/><stop offset="0.97" stop-color="#c7dfe0"/><stop offset="1" stop-color="#cbdfde"/></linearGradient><linearGradient id="b" x1="213.66" y1="144.95" x2="345.34" y2="144.95" xlink:href="#a"/></defs><title>catsunglasses</title><g class="a"><polygon class="b" points="88.34 198.35 81.98 180.66 92.36 133.4 164 85.86 184.42 81.18 207.08 75.49 213.66 75.49 213.66 205.66 175.05 214.42 88.34 198.35"/><polygon class="c" points="131.08 261.62 143.58 257.27 187.44 272.53 193.38 263.43 153.71 232.51 90.42 220.28 90.42 220.28 91.02 226.47 131.08 261.62"/><polygon class="c" points="296.38 263.62 283.88 259.27 240.02 274.53 234.08 265.43 273.75 234.51 337.04 222.28 337.04 222.28 336.44 228.47 296.38 263.62"/><polygon class="d" points="175.81 262 195.7 278.87 208.86 284.94 213.66 284.94 213.66 253.75 192.35 255.04 175.81 262"/><polygon class="d" points="251.83 262.08 231.94 278.95 218.77 285.03 213.97 285.03 213.97 253.84 235.29 255.12 251.83 262.08"/><polygon class="e" points="213.66 239.02 213.66 253.75 193.3 260.45 172.54 262.29 151.95 241.7 155.47 221.95 180.24 216.09 198.99 222.28 213.66 239.02"/><polygon class="f" points="195.7 218.66 190 209.28 199.49 189.98 213.66 186.13 213.66 219.61 195.7 218.66"/><polygon class="g" points="203.28 216.09 195.7 218.66 198.07 225.3 200.25 227.73 204.18 225.8 208.45 229.4 206.54 234.74 210.43 239.08 213.66 239.75 213.66 218.66 203.28 216.09"/><polygon class="h" points="204.18 225.8 200.25 227.73 206.54 234.74 208.45 229.4 204.18 225.8"/><polygon class="i" points="202.04 257.57 208.98 261.4 213.66 262.29 213.66 253.75 202.04 257.57"/><polygon class="e" points="191.79 205.66 184.54 193.66 186.6 182.11 182.81 170.06 164.89 156.56 150.84 156.72 139.01 162.19 121.6 161.52 145.92 148.47 168.58 148.47 190 166.88 193.24 182.28 191.79 205.66"/><polygon class="j" points="184.31 174.84 183.09 186.13 163.78 191.76 147.82 187.52 139.12 176.48 138.22 165.54 131.08 170.79 134.65 179.71 144.81 191.76 163.11 195.78 184.54 193.66 186.6 182.11 184.31 174.84"/><polygon class="k" points="138.22 165.54 139.01 162.19 150.84 156.72 164.89 156.56 182.81 170.06 184.42 175.19 183.09 186.13 163.78 191.76 147.82 187.52 139.12 176.48 138.22 165.54"/><polygon class="l" points="142.66 164.2 152.29 159.51 164.42 160.35 179.99 172.32 179.49 182.95 164.67 189.06 149.11 184.46 142.16 175.33 142.66 164.2"/><polygon class="m" points="91.29 112.4 82.65 69.44 86.76 48.48 101.66 32.97 120.03 38.42 150.27 65.66 163.38 86.28 164 85.86 184.42 81.18 149.27 61.98 118.03 32.97 99.06 27.17 83.66 43.68 79.42 66 88.34 111.75 88.34 126.04 92.36 133.4 94.69 131.86 91.29 125.81 91.29 112.4"/><polygon class="n" points="150.27 65.66 120.03 38.42 101.66 32.97 86.76 48.48 82.65 69.44 91.29 112.4 91.29 125.81 94.69 131.86 163.38 86.28 150.27 65.66"/><polygon class="i" points="150.27 65.66 120.03 38.42 101.66 32.97 86.76 48.48 82.65 69.44 91.29 112.4 91.29 125.81 94.69 131.86 163.38 86.28 150.27 65.66"/><polygon class="o" points="338.98 198.35 345.34 180.66 334.96 133.4 263.32 85.86 242.9 81.18 220.25 75.49 213.66 75.49 213.66 205.66 252.27 214.42 338.98 198.35"/><polygon class="m" points="235.54 205.66 247.34 161.52 237.32 123.02 242.9 81.18 220.25 75.49 213.66 75.49 213.66 186.13 227.83 189.98 235.54 205.66"/><polygon class="e" points="213.66 239.02 213.66 253.75 234.03 260.45 254.78 262.29 275.37 241.7 271.86 221.95 247.08 216.09 228.34 222.28 213.66 239.02"/><polygon class="f" points="231.63 218.66 237.32 209.28 227.83 189.98 213.66 186.13 213.66 219.61 231.63 218.66"/><polygon class="g" points="224.04 216.09 231.63 218.66 229.26 225.3 227.07 227.73 223.15 225.8 218.88 229.4 220.79 234.74 216.9 239.08 213.66 239.75 213.66 218.66 224.04 216.09"/><polygon class="h" points="223.15 225.8 227.07 227.73 220.79 234.74 218.88 229.4 223.15 225.8"/><polygon class="g" points="225.28 257.57 218.35 261.4 213.66 262.29 213.66 253.75 225.28 257.57"/><polygon class="e" points="235.54 205.66 242.79 193.66 240.72 182.11 244.52 170.06 262.43 156.56 276.49 156.72 288.32 162.19 305.73 161.52 281.4 148.47 258.75 148.47 237.32 166.88 234.08 182.28 235.54 205.66"/><polygon class="j" points="243.01 174.84 244.24 186.13 263.55 191.76 279.5 187.52 288.21 176.48 289.1 165.54 296.24 170.79 292.67 179.71 282.52 191.76 264.21 195.78 242.79 193.66 240.72 182.11 243.01 174.84"/><polygon class="k" points="289.1 165.54 288.32 162.19 276.49 156.72 262.43 156.56 244.52 170.06 242.9 175.19 244.24 186.13 263.55 191.76 279.5 187.52 288.21 176.48 289.1 165.54"/><polygon class="l" points="284.66 164.2 275.04 159.51 262.9 160.35 247.34 172.32 247.84 182.95 262.65 189.06 278.22 184.46 285.17 175.33 284.66 164.2"/><polygon class="e" points="336.03 112.4 344.68 69.44 340.57 48.48 325.66 32.97 307.3 38.42 277.05 65.66 263.95 86.28 263.32 85.86 242.9 81.18 278.05 61.98 309.3 32.97 328.27 27.17 343.67 43.68 347.91 66 338.98 111.75 338.98 126.04 334.96 133.4 332.64 131.86 336.03 125.81 336.03 112.4"/><polygon class="n" points="277.05 65.66 307.3 38.42 325.66 32.97 340.57 48.48 344.68 69.44 336.03 112.4 336.03 125.81 332.64 131.86 263.95 86.28 277.05 65.66"/><polygon class="i" points="277.05 65.66 307.3 38.42 325.66 32.97 340.57 48.48 344.68 69.44 336.03 112.4 336.03 125.81 332.64 131.86 263.95 86.28 277.05 65.66"/></g></svg>